<svg width="24" height="24" viewBox="0 0 24 24" fill="none" xmlns="http://www.w3.org/2000/svg">
<path id="sort-quantidade-alt" d="M0.999998 17.0004C0.447714 17.0004 0 16.5527 0 16.0004C0 15.4481 0.447714 15.0004 1 15.0004L13.0503 15.0004C13.6026 15.0004 14.0503 15.4481 14.0503 16.0004C14.0503 16.5527 13.6026 17.0004 13.0503 17.0004L0.999998 17.0004ZM14.0503 11.0004C14.0503 10.4481 13.6026 10.0004 13.0503 10.0004H4.01079C3.4585 10.0004 3.01079 10.4481 3.01079 11.0004C3.01079 11.5527 3.4585 12.0004 4.01079 12.0004H13.0503C13.6026 12.0004 14.0503 11.5527 14.0503 11.0004ZM14.0503 6.00043C14.0503 5.44814 13.6026 5.00043 13.0503 5.00043L7.02158 5.00043C6.46929 5.00043 6.02158 5.44814 6.02158 6.00043C6.02158 6.55271 6.46929 7.00043 7.02158 7.00043L13.0503 7.00043C13.6026 7.00043 14.0503 6.55271 14.0503 6.00043ZM14.0503 1.00043C14.0503 0.448143 13.6026 0.000427246 13.0503 0.000427246H10.0324C9.48008 0.000427246 9.03236 0.448143 9.03236 1.00043C9.03236 1.55271 9.48008 2.00043 10.0324 2.00043H13.0503C13.6026 2.00043 14.0503 1.55271 14.0503 1.00043ZM20.4874 23.4144L23.2879 20.624C23.6808 20.2325 23.6808 19.5963 23.2879 19.2049C22.897 18.8154 22.2648 18.8154 21.8739 19.2049L20.0719 21.0004L20.0719 1.00402C20.0719 0.449753 19.6226 0.000427246 19.0683 0.000427246C18.5141 0.000427246 18.0647 0.449753 18.0647 1.00402L18.0647 21.0004L16.2627 19.2049C15.8719 18.8154 15.2396 18.8154 14.8487 19.2049C14.4559 19.5963 14.4559 20.2325 14.8487 20.624L17.6492 23.4144C18.0256 23.7894 18.5361 24 19.0683 24C19.6006 24 20.111 23.7894 20.4874 23.4144Z" fill="#A6A6A6"/>
</svg>
