<svg width="22" height="22" viewBox="0 0 22 22" fill="none" xmlns="http://www.w3.org/2000/svg">
<g id="Frame 530155">
<g id="Grupo 302">
<path id="Caminho 194" d="M19 4.167H15.0003V2.583C15.0003 2.16316 14.8317 1.76052 14.5317 1.46365C14.2317 1.16678 13.8248 1 13.4006 1H8.60045C8.39029 0.999869 8.18217 1.04072 7.98797 1.12021C7.79377 1.19971 7.6173 1.31629 7.46865 1.4633C7.31999 1.6103 7.20207 1.78486 7.12161 1.97698C7.04116 2.1691 6.99975 2.37503 6.99975 2.583V4.167H3V5.75H4.5997V17.625C4.5997 18.2549 4.85256 18.859 5.30266 19.3044C5.75275 19.7498 6.36321 20 6.99975 20H15.0003C15.6368 20 16.2472 19.7498 16.6973 19.3044C17.1474 18.859 17.4003 18.2549 17.4003 17.625V5.75H19V4.167ZM8.60045 2.583H13.4006V4.167H8.60045V2.583ZM15.8006 17.625C15.8006 17.8351 15.7163 18.0365 15.5662 18.185C15.4161 18.3336 15.2125 18.417 15.0003 18.417H6.99975C6.78748 18.417 6.58391 18.3336 6.43381 18.185C6.28372 18.0365 6.19939 17.8351 6.19939 17.625V5.75H15.7996L15.8006 17.625Z" fill="#878787"/>
<path id="Ret&#195;&#162;ngulo 67" d="M10.074 9H9.06348V15H10.074V9Z" fill="#878787"/>
<path id="Ret&#195;&#162;ngulo 68" d="M13.1053 9H12.0947V15H13.1053V9Z" fill="#878787"/>
</g>
</g>
</svg>
